<svg id="Capa_1" data-name="Capa 1" xmlns="http://www.w3.org/2000/svg" viewBox="0 0 259 227"><defs><style>.cls-1{fill:#5ea250;}.cls-2{fill:#fff;}</style></defs><title>Implemedica</title><circle class="cls-1" cx="130.04" cy="113.58" r="108.42"/><path class="cls-2" d="M197.42,97.6a7.26,7.26,0,0,0-6.25-5L151.76,89,136.18,52.56a7.26,7.26,0,0,0-13.35,0L107.25,89,67.83,92.61a7.27,7.27,0,0,0-4.13,12.7l29.8,26.13-8.79,38.69A7.26,7.26,0,0,0,95.51,178l34-20.33,34,20.33a7.27,7.27,0,0,0,10.81-7.85l-8.79-38.69,29.8-26.13A7.29,7.29,0,0,0,197.42,97.6Z"/></svg>