<svg id="Capa_1" data-name="Capa 1" xmlns="http://www.w3.org/2000/svg" viewBox="0 0 259 227"><defs><style>.cls-1{fill:#5ea250;}.cls-2{fill:#fff;}</style></defs><title>Implemedica</title><circle class="cls-1" cx="130.04" cy="113.53" r="105.5"/><path class="cls-2" d="M160,54.34a7.21,7.21,0,0,0-9.7,3.16L96.63,163a7.21,7.21,0,0,0,12.86,6.54L163.13,64A7.21,7.21,0,0,0,160,54.34Z"/><path class="cls-2" d="M121.45,89.09a27.36,27.36,0,1,0-27.36,27.36A27.39,27.39,0,0,0,121.45,89.09ZM94.09,102A12.93,12.93,0,1,1,107,89.09,12.94,12.94,0,0,1,94.09,102Z"/><path class="cls-2" d="M166,110.61A27.36,27.36,0,1,0,193.35,138,27.4,27.4,0,0,0,166,110.61Zm0,40.29A12.93,12.93,0,1,1,178.92,138,12.94,12.94,0,0,1,166,150.9Z"/></svg>