<svg id="Capa_1" data-name="Capa 1" xmlns="http://www.w3.org/2000/svg" viewBox="0 0 259 227"><defs><style>.cls-1{fill:#5ea250;}</style></defs><title>Implemedica</title><path class="cls-1" d="M164.38,34a9.22,9.22,0,0,0-12.42,4L83.26,173.17a9.23,9.23,0,0,0,4,12.41,9.1,9.1,0,0,0,4.18,1,9.24,9.24,0,0,0,8.24-5.05l68.7-135.12A9.23,9.23,0,0,0,164.38,34Z"/><path class="cls-1" d="M115.05,78.5a35,35,0,1,0-35,35A35.06,35.06,0,0,0,115.05,78.5ZM80,95.06A16.56,16.56,0,1,1,96.58,78.5,16.57,16.57,0,0,1,80,95.06Z"/><path class="cls-1" d="M172.08,106.06a35,35,0,1,0,35,35A35.08,35.08,0,0,0,172.08,106.06Zm0,51.59a16.56,16.56,0,1,1,16.56-16.56A16.57,16.57,0,0,1,172.08,157.65Z"/></svg>