<svg xmlns="http://www.w3.org/2000/svg" width="32" height="30.763" viewBox="0 0 32 30.763"><defs><style>.a{fill:#5fba51;}</style></defs><g transform="translate(68.83 71.971)"><path class="a" d="M2.17,9.984V28.831A1.726,1.726,0,0,0,3.408,30.5L17.19,34.648a3.4,3.4,0,0,0,1.96,0l13.782-4.155A1.726,1.726,0,0,0,34.17,28.82V9.984a1.726,1.726,0,0,0-1.238-1.673L19.15,4.173a3.405,3.405,0,0,0-1.96,0l-6,1.806v7.968l-3.168.6V6.933L3.408,8.318A1.736,1.736,0,0,0,2.17,9.984ZM19.9,8.03l10.788,3.245V27.539L19.906,30.781Z" transform="translate(-71 -76)"/></g></svg>