<svg xmlns="http://www.w3.org/2000/svg" width="49.846" height="49.846" viewBox="0 0 49.846 49.846"><defs><style>.a{fill:#fff;}</style></defs><g transform="translate(-20.925 -22.323)"><path class="a" d="M26.923,2A24.923,24.923,0,1,0,51.846,26.923,24.932,24.932,0,0,0,26.923,2Zm0,7.477a7.477,7.477,0,1,1-7.477,7.477A7.467,7.467,0,0,1,26.923,9.477Zm0,35.39a17.946,17.946,0,0,1-14.954-8.025c.075-4.96,9.969-7.676,14.954-7.676,4.96,0,14.879,2.717,14.954,7.676A17.946,17.946,0,0,1,26.923,44.867Z" transform="translate(18.925 20.323)"/></g></svg>